<svg width="25" height="25" viewBox="0 0 25 25" fill="none" xmlns="http://www.w3.org/2000/svg">
<path d="M13.3029 8.27092C13.562 7.94771 13.51 7.47569 13.1868 7.21665C12.8635 6.9576 12.3915 7.00962 12.1325 7.33283L13.3029 8.27092ZM6.57396 15.4675L7.14199 15.9572C7.14785 15.9504 7.15358 15.9435 7.15919 15.9365L6.57396 15.4675ZM6.39583 15.9029L5.64729 15.8541L5.64664 15.8682L6.39583 15.9029ZM6.25 19.0519L5.5008 19.0172C5.49908 19.0544 5.50013 19.0917 5.50396 19.1288L6.25 19.0519ZM7.06979 19.7675L7.09431 20.5171C7.14433 20.5155 7.19406 20.5088 7.24275 20.4973L7.06979 19.7675ZM10.1948 19.0269L10.3678 19.7568L10.3794 19.7538L10.1948 19.0269ZM10.5958 18.7727L11.1744 19.25L11.1809 19.2419L10.5958 18.7727ZM17.4726 11.3961C17.7317 11.0729 17.6798 10.6009 17.3567 10.3418C17.0336 10.0826 16.5615 10.1345 16.3024 10.4577L17.4726 11.3961ZM12.1358 7.33264C11.8766 7.65576 11.9285 8.1278 12.2516 8.38695C12.5747 8.64611 13.0468 8.59425 13.3059 8.27112L12.1358 7.33264ZM14.375 5.73938L14.9601 6.20862C14.9699 6.19633 14.9794 6.18373 14.9885 6.17084L14.375 5.73938ZM16.0719 5.40605L16.5517 4.8296C16.5278 4.80972 16.5027 4.79135 16.4765 4.77458L16.0719 5.40605ZM18.4021 7.34563L18.9329 6.81579C18.9166 6.79948 18.8996 6.78393 18.8819 6.76919L18.4021 7.34563ZM18.7531 8.20071L19.503 8.20483V8.20483L18.7531 8.20071ZM18.3927 9.05188L17.8677 8.51624C17.8465 8.53707 17.8265 8.55915 17.8078 8.58237L18.3927 9.05188ZM16.3026 10.4574C16.0433 10.7804 16.095 11.2524 16.418 11.5117C16.741 11.771 17.2131 11.7194 17.4724 11.3964L16.3026 10.4574ZM13.4626 7.69073C13.4012 7.28109 13.0193 6.99877 12.6097 7.06016C12.2 7.12155 11.9177 7.50339 11.9791 7.91303L13.4626 7.69073ZM16.9885 11.67C17.3989 11.6143 17.6864 11.2363 17.6307 10.8259C17.5749 10.4155 17.197 10.1279 16.7865 10.1837L16.9885 11.67ZM12.1325 7.33283L5.98873 14.9985L7.15919 15.9365L13.3029 8.27092L12.1325 7.33283ZM6.00593 14.9778C5.79436 15.2232 5.66851 15.5308 5.64742 15.8541L7.14424 15.9517C7.14411 15.9538 7.14332 15.9557 7.14199 15.9572L6.00593 14.9778ZM5.64664 15.8682L5.5008 19.0172L6.9992 19.0866L7.14503 15.9376L5.64664 15.8682ZM5.50396 19.1288C5.58735 19.9374 6.28192 20.5437 7.09431 20.5171L7.04527 19.0179C7.02012 19.0187 6.99862 19 6.99604 18.9749L5.50396 19.1288ZM7.24275 20.4973L10.3678 19.7567L10.0218 18.2971L6.89683 19.0377L7.24275 20.4973ZM10.3794 19.7538C10.6912 19.6746 10.9697 19.4981 11.1744 19.25L10.0173 18.2954C10.0155 18.2977 10.013 18.2992 10.0102 18.3L10.3794 19.7538ZM11.1809 19.2419L17.4726 11.3961L16.3024 10.4577L10.0107 18.3035L11.1809 19.2419ZM13.3059 8.27112L14.9601 6.20862L13.7899 5.27014L12.1358 7.33264L13.3059 8.27112ZM14.9885 6.17084C15.1425 5.95182 15.4418 5.89303 15.6672 6.03751L16.4765 4.77458C15.5747 4.19667 14.3777 4.43181 13.7615 5.30791L14.9885 6.17084ZM15.5921 5.98249L17.9223 7.92207L18.8819 6.76919L16.5517 4.8296L15.5921 5.98249ZM17.8713 7.87547C17.9563 7.96064 18.0037 8.07625 18.0031 8.19659L19.503 8.20483C19.5059 7.6843 19.3006 7.18421 18.9329 6.81579L17.8713 7.87547ZM18.0031 8.19659C18.0024 8.31692 17.9537 8.43201 17.8677 8.51624L18.9177 9.58752C19.2894 9.22317 19.5002 8.72536 19.503 8.20483L18.0031 8.19659ZM17.8078 8.58237L16.3026 10.4574L17.4724 11.3964L18.9776 9.52139L17.8078 8.58237ZM11.9791 7.91303C12.3405 10.3246 14.5722 11.9984 16.9885 11.67L16.7865 10.1837C15.1832 10.4016 13.7023 9.2909 13.4626 7.69073L11.9791 7.91303Z" fill="#B3B7EE"/>
</svg>
