<svg width="18" height="20" viewBox="0 0 18 20" fill="none" xmlns="http://www.w3.org/2000/svg">
<path d="M8.99998 9.3846C9.85196 9.3846 10.6848 9.13196 11.3932 8.65862C12.1016 8.18529 12.6537 7.51252 12.9798 6.72539C13.3058 5.93827 13.3911 5.07213 13.2249 4.23652C13.0587 3.40092 12.6484 2.63336 12.046 2.03092C11.4435 1.42848 10.676 1.01821 9.84037 0.851999C9.00476 0.685786 8.13863 0.771093 7.3515 1.09713C6.56438 1.42317 5.89161 1.9753 5.41827 2.68369C4.94494 3.39209 4.6923 4.22493 4.6923 5.07691C4.6923 6.21938 5.14614 7.31506 5.95399 8.1229C6.76184 8.93075 7.85751 9.3846 8.99998 9.3846ZM8.99998 1.99999C9.60854 1.99999 10.2034 2.18045 10.7094 2.51855C11.2154 2.85664 11.6098 3.33719 11.8427 3.89943C12.0756 4.46166 12.1365 5.08033 12.0178 5.67719C11.8991 6.27405 11.606 6.82231 11.1757 7.25262C10.7454 7.68294 10.1971 7.97598 9.60026 8.09471C9.0034 8.21343 8.38473 8.1525 7.8225 7.91961C7.26026 7.68673 6.77971 7.29235 6.44162 6.78636C6.10352 6.28036 5.92306 5.68547 5.92306 5.07691C5.92306 4.26086 6.24724 3.47824 6.82427 2.9012C7.40131 2.32417 8.18393 1.99999 8.99998 1.99999Z" fill="#575DFB"/>
<path d="M16.6738 13.92C15.6869 12.8769 14.4977 12.0461 13.1788 11.4783C11.8599 10.9104 10.439 10.6176 9.00306 10.6176C7.56712 10.6176 6.14626 10.9104 4.82735 11.4783C3.50844 12.0461 2.31919 12.8769 1.33231 13.92C1.11835 14.1485 0.999516 14.45 1 14.763V18C1 18.3264 1.12967 18.6394 1.36048 18.8703C1.5913 19.1011 1.90435 19.2307 2.23077 19.2307H15.7692C16.0956 19.2307 16.4087 19.1011 16.6395 18.8703C16.8703 18.6394 17 18.3264 17 18V14.763C17.0021 14.4508 16.8855 14.1495 16.6738 13.92ZM15.7692 18H2.23077V14.7569C3.10291 13.8385 4.15279 13.1073 5.31652 12.6075C6.48025 12.1078 7.7335 11.8501 8.99999 11.8501C10.2665 11.8501 11.5197 12.1078 12.6835 12.6075C13.8472 13.1073 14.8971 13.8385 15.7692 14.7569V18Z" fill="#575DFB"/>
<path d="M8.99998 9.3846C9.85196 9.3846 10.6848 9.13196 11.3932 8.65862C12.1016 8.18529 12.6537 7.51252 12.9798 6.72539C13.3058 5.93827 13.3911 5.07213 13.2249 4.23652C13.0587 3.40092 12.6484 2.63336 12.046 2.03092C11.4435 1.42848 10.676 1.01821 9.84037 0.851999C9.00476 0.685786 8.13863 0.771093 7.3515 1.09713C6.56438 1.42317 5.89161 1.9753 5.41827 2.68369C4.94494 3.39209 4.6923 4.22493 4.6923 5.07691C4.6923 6.21938 5.14614 7.31506 5.95399 8.1229C6.76184 8.93075 7.85751 9.3846 8.99998 9.3846ZM8.99998 1.99999C9.60854 1.99999 10.2034 2.18045 10.7094 2.51855C11.2154 2.85664 11.6098 3.33719 11.8427 3.89943C12.0756 4.46166 12.1365 5.08033 12.0178 5.67719C11.8991 6.27405 11.606 6.82231 11.1757 7.25262C10.7454 7.68294 10.1971 7.97598 9.60026 8.09471C9.0034 8.21343 8.38473 8.1525 7.8225 7.91961C7.26026 7.68673 6.77971 7.29235 6.44162 6.78636C6.10352 6.28036 5.92306 5.68547 5.92306 5.07691C5.92306 4.26086 6.24724 3.47824 6.82427 2.9012C7.40131 2.32417 8.18393 1.99999 8.99998 1.99999Z" stroke="#575DFB" stroke-width="0.6"/>
<path d="M16.6738 13.92C15.6869 12.8769 14.4977 12.0461 13.1788 11.4783C11.8599 10.9104 10.439 10.6176 9.00306 10.6176C7.56712 10.6176 6.14626 10.9104 4.82735 11.4783C3.50844 12.0461 2.31919 12.8769 1.33231 13.92C1.11835 14.1485 0.999516 14.45 1 14.763V18C1 18.3264 1.12967 18.6394 1.36048 18.8703C1.5913 19.1011 1.90435 19.2307 2.23077 19.2307H15.7692C16.0956 19.2307 16.4087 19.1011 16.6395 18.8703C16.8703 18.6394 17 18.3264 17 18V14.763C17.0021 14.4508 16.8855 14.1495 16.6738 13.92ZM15.7692 18H2.23077V14.7569C3.10291 13.8385 4.15279 13.1073 5.31652 12.6075C6.48025 12.1078 7.7335 11.8501 8.99999 11.8501C10.2665 11.8501 11.5197 12.1078 12.6835 12.6075C13.8472 13.1073 14.8971 13.8385 15.7692 14.7569V18Z" stroke="#575DFB" stroke-width="0.6"/>
</svg>
